<svg width="40" height="40" viewBox="0 0 40 40" fill="none" xmlns="http://www.w3.org/2000/svg">
<path d="M32 0C36.4183 0 40 3.58172 40 8V32C40 36.4183 36.4183 40 32 40H8C3.58172 40 6.44277e-08 36.4183 0 32V8C0 3.58172 3.58172 6.44256e-08 8 0H32ZM20.251 12C19.9662 12 19.6842 12.0496 19.417 12.1445L9.55566 15.7051C9.22178 15.8282 9.00098 16.145 9.00098 16.5C9.00098 16.855 9.22178 17.1718 9.55566 17.2949L11.5918 18.0293C11.0153 18.9362 10.6886 20.0083 10.6885 21.1367V22.125C10.6885 23.1234 10.3086 24.1537 9.9043 24.9658C9.67586 25.4227 9.4155 25.8724 9.11328 26.2871C9.00085 26.4382 8.9691 26.6352 9.03223 26.8145C9.0955 26.9937 9.24299 27.1281 9.42578 27.1738L11.6758 27.7363C11.8234 27.775 11.9822 27.7469 12.1123 27.666C12.2423 27.5851 12.3332 27.4509 12.3613 27.2998C12.6636 25.7952 12.5131 24.4453 12.2881 23.4785C12.1756 22.9794 12.0244 22.4695 11.8135 22.002V21.1367C11.8136 20.0751 12.1718 19.0729 12.7939 18.2715C13.2474 17.7267 13.8345 17.2873 14.5234 17.0166L20.043 14.8477C20.3312 14.7352 20.658 14.8759 20.7705 15.1641C20.883 15.4523 20.7424 15.7791 20.4541 15.8916L14.9346 18.0605C14.4987 18.2328 14.1156 18.4969 13.8027 18.8203L19.4141 20.8457C19.6811 20.9405 19.9624 20.9893 20.2471 20.9893C20.5317 20.9893 20.813 20.9406 21.0801 20.8457L30.9453 17.2949C31.2792 17.1754 31.501 16.855 31.501 16.5C31.501 16.145 31.2792 15.8281 30.9453 15.7051L21.084 12.1445C20.8169 12.0497 20.5356 12.0001 20.251 12ZM21.4639 21.9141C21.0738 22.0546 20.6622 22.125 20.251 22.125C19.8398 22.125 19.4247 22.0546 19.0381 21.9141L14.0381 20.1074L13.501 25.2188C13.501 26.4598 16.5244 27.75 20.251 27.75C23.9773 27.7499 27.001 26.4597 27.001 25.2188L26.4629 20.1074L21.4639 21.9141Z" fill="#4F46E5"/>
</svg>
